<?xml version="1.0" encoding="utf-8"?>
<!-- Generator: Adobe Illustrator 21.0.0, SVG Export Plug-In . SVG Version: 6.00 Build 0)  -->
<svg version="1.1" id="Layer_1" xmlns="http://www.w3.org/2000/svg" xmlns:xlink="http://www.w3.org/1999/xlink" x="0px" y="0px"
	 viewBox="0 0 522.1 90.8" style="enable-background:new 0 0 522.1 90.8;" xml:space="preserve">
<style type="text/css">
	.st0{fill:#FFFFFF;}
</style>
<g>
	<path class="st0" d="M146.9,29v41.2h-7.9V29h-21.8v-6.5h51.7V29H146.9z"/>
	<path class="st0" d="M190.2,22.5v41.1H225V22.5h7.9v36.4c0,4.4-0.8,7.4-2.3,8.9c-1.6,1.6-4.5,2.3-8.8,2.3h-28.3
		c-4.3,0-7.3-0.8-8.9-2.4s-2.3-4.6-2.3-8.9V22.5H190.2z"/>
	<path class="st0" d="M257.7,70.2V22.5h5l35.7,31.9c0.8,0.7,1.7,1.6,2.6,2.6c0.9,1,1.9,2.2,2.8,3.4c-0.2-1.5-0.4-3.1-0.5-4.8
		c-0.1-1.7-0.2-4-0.2-6.9V22.5h7.3v47.7h-4.5L269.3,37c-0.2-0.2-0.5-0.4-0.8-0.7c-1.8-1.6-3.1-3.2-4-4.7c0.2,1.4,0.3,3,0.4,4.6
		c0.1,1.6,0.1,3.6,0.1,5.8v28.1H257.7z"/>
	<path class="st0" d="M335.2,70.2V22.5h5l35.7,31.9c0.8,0.7,1.7,1.6,2.6,2.6c0.9,1,1.9,2.2,2.8,3.4c-0.2-1.5-0.4-3.1-0.5-4.8
		c-0.1-1.7-0.2-4-0.2-6.9V22.5h7.3v47.7h-4.5L346.8,37c-0.2-0.2-0.5-0.4-0.8-0.7c-1.8-1.6-3.1-3.2-4-4.7c0.2,1.4,0.3,3,0.4,4.6
		s0.1,3.6,0.1,5.8v28.1H335.2z"/>
	<path class="st0" d="M412.7,70.2V22.5h46v6.4h-38v13.3h23.2v6.3h-23.2v15.2H459v6.5H412.7z"/>
	<path class="st0" d="M478,70.2V22.5h8v41.1h36.1v6.6H478z"/>
</g>
<polygon class="st0" points="85.6,2.6 64.3,11.9 55.6,6.4 49.7,2.6 45.7,0 91.4,0 "/>
<polygon class="st0" points="66.8,13.5 91.4,2.6 91.4,29.5 "/>
<polygon class="st0" points="0,29.5 0,2.6 24.7,13.5 "/>
<polygon class="st0" points="45.7,0 41.7,2.6 35.8,6.4 27.1,11.9 5.8,2.6 0,0 "/>
<polygon class="st0" points="91.4,0 85.6,2.6 64.3,11.9 55.6,15.8 45.7,20.1 35.8,15.8 27.1,11.9 5.8,2.6 0,0 "/>
<polygon class="st0" points="55.6,0 55.6,15.8 45.7,20.1 35.8,15.8 35.8,0 "/>
<polygon class="st0" points="55.6,18.4 55.6,72.2 45.7,37 35.8,72.2 35.8,18.4 45.7,22.7 "/>
<polygon class="st0" points="45.7,43.5 55.6,78.7 55.6,90.8 35.8,90.8 35.8,78.7 "/>
<polygon class="st0" points="59,90.8 32.6,90.8 34.3,84.3 35.8,78.7 45.7,43.5 55.6,78.7 57.1,84.3 "/>
</svg>
